<svg version="1.1" viewBox="0.0 0.0 512.0 512.0" fill="none" stroke="none" stroke-linecap="square" stroke-miterlimit="10" xmlns:xlink="http://www.w3.org/1999/xlink" xmlns="http://www.w3.org/2000/svg"><clipPath id="p.0"><path d="m0 0l512.0 0l0 512.0l-512.0 0l0 -512.0z" clip-rule="nonzero"/></clipPath><g clip-path="url(#p.0)"><path fill="#000000" fill-opacity="0.0" d="m0 0l512.0 0l0 512.0l-512.0 0z" fill-rule="evenodd"/><path fill="#a2c4c9" d="m0 85.33504l0 0c0 -47.12924 38.2058 -85.33504 85.33504 -85.33504l341.3299 0l0 0c22.632263 0 44.337585 8.99063 60.341003 24.994055c16.003418 16.003424 24.99405 37.708725 24.99405 60.34098l0 341.3299c0 47.129242 -38.20581 85.33505 -85.33505 85.33505l-341.3299 0c-47.12924 0 -85.33504 -38.20581 -85.33504 -85.33505z" fill-rule="evenodd"/><path fill="#efefef" d="m129.18599 308.8l-71.1875 0l0 -18.625l22.484379 0l0 -56.34375l-22.484379 0l0 -17.40625q5.15625 0 9.875004 -0.609375q4.734375 -0.609375 7.890625 -2.109375q3.71875 -1.796875 5.578125 -4.65625q1.859375 -2.859375 2.15625 -7.15625l23.703125 0l0 88.28125l21.984367 0l0 18.625zm126.16968 0l-28.421875 0l-7.390625 -21.546875l-39.515625 0l-7.375 21.546875l-27.71875 0l39.390625 -106.625l31.640625 0l39.390625 106.625zm-42.46875 -41.109375l-13.09375 -38.234375l-13.109375 38.234375l26.203125 0zm141.14037 41.109375l-83.703125 0l0 -17.609375q9.59375 -6.953125 19.21875 -14.75q9.640625 -7.8125 15.4375 -13.46875q8.671875 -8.375 12.3125 -14.609375q3.65625 -6.234375 3.65625 -12.3125q0 -7.3125 -4.6875 -11.28125q-4.6875 -3.984375 -13.5 -3.984375q-6.59375 0 -13.859375 2.734375q-7.265625 2.71875 -13.5 6.9375l-2.28125 0l0 -23.703125q5.078125 -2.21875 14.984375 -4.4375q9.921875 -2.21875 19.890625 -2.21875q20.046875 0 30.5625 8.421875q10.53125 8.40625 10.53125 23.796875q0 10.109375 -5.046875 19.203125q-5.046875 9.09375 -15.4375 18.75q-6.515625 6.015625 -13.109375 11.078125q-6.578125 5.046875 -9.375 7.046875l47.90625 0l0 20.40625zm112.15405 -32.65625q0 7.734375 -3.125 13.828125q-3.109375 6.078125 -8.5625 10.09375q-6.296875 4.71875 -13.859375 6.734375q-7.546875 2.0 -19.140625 2.0l-46.546875 0l0 -106.625l41.390625 0q12.890625 0 18.859375 0.859375q5.984375 0.859375 11.859375 3.796875q6.078125 3.078125 9.046875 8.265625q2.984375 5.1875 2.984375 11.859375q0 7.734375 -4.09375 13.640625q-4.078125 5.90625 -11.515625 9.203125l0 0.5625q10.453125 2.078125 16.578125 8.59375q6.125 6.515625 6.125 17.1875zm-35.234375 -43.828125q0 -2.640625 -1.328125 -5.28125q-1.328125 -2.65625 -4.6875 -3.953125q-3.015625 -1.140625 -7.5 -1.25q-4.46875 -0.109375 -12.5625 -0.109375l-2.578125 0l0 22.5625l4.296875 0q6.53125 0 11.109375 -0.21875q4.578125 -0.21875 7.234375 -1.4375q3.71875 -1.640625 4.859375 -4.25q1.15625 -2.625 1.15625 -6.0625zm6.71875 43.40625q0 -5.09375 -1.96875 -7.84375q-1.96875 -2.765625 -6.6875 -4.125q-3.21875 -0.921875 -8.875 -0.984375q-5.65625 -0.078125 -11.828125 -0.078125l-6.015625 0l0 26.5625l2.015625 0q11.59375 0 16.609375 -0.0625q5.015625 -0.078125 9.234375 -1.875q4.296875 -1.78125 5.90625 -4.75q1.609375 -2.984375 1.609375 -6.84375z" fill-rule="nonzero"/><path fill="#134f5c" d="m389.98425 430.99213l0 0c0 -22.64801 18.359863 -41.007874 41.007874 -41.007874l0 0c10.875977 0 21.306488 4.320465 28.996948 12.010925c7.69046 7.69046 12.010925 18.120972 12.010925 28.996948l0 0c0 22.64801 -18.359863 41.007874 -41.007874 41.007874l0 0c-22.64801 0 -41.007874 -18.359863 -41.007874 -41.007874z" fill-rule="evenodd"/><path fill="#f3f3f3" d="m443.92667 440.77338q0 3.1875 -1.140625 5.96875q-1.140625 2.78125 -3.375 4.703125q-2.375 2.046875 -5.734375 3.171875q-3.359375 1.125 -8.296875 1.125q-3.359375 0 -6.328125 -0.25q-2.953125 -0.234375 -5.203125 -0.6875l0 -9.84375l1.171875 0q1.5625 0.59375 3.25 1.109375q1.703125 0.5 4.34375 0.5q3.421875 0 5.25 -0.90625q1.84375 -0.921875 2.625 -2.546875q0.75 -1.59375 0.84375 -3.5q0.09375 -1.90625 0.09375 -4.875l0 -19.296875l-11.09375 0l0 -8.921875l23.59375 0l0 34.25z" fill-rule="nonzero"/></g></svg>